<svg xmlns="http://www.w3.org/2000/svg" width="880" height="520" viewBox="0 0 880 520">
  <rect x="0" y="0" width="880" height="520" fill="#0f0f13"/>
  <g font-family="Verdana,Arial,sans-serif" font-size="16" fill="#c8d1dc">
    <text x="16" y="28">Choosing a Data Distribution Strategy</text>
  </g>

  <!-- nodes -->
  <g fill="#1d2330" stroke-width="2">
    <!-- left questions, color-coded strokes -->
    <rect x="60" y="60" width="280" height="56" rx="8" stroke="#7aa2ff"/>
    <rect x="60" y="150" width="280" height="56" rx="8" stroke="#d57a7a"/>
    <rect x="60" y="240" width="280" height="56" rx="8" stroke="#5ec69a"/>
    <rect x="60" y="330" width="280" height="56" rx="8" stroke="#c792ea"/>
    <rect x="60" y="420" width="280" height="56" rx="8" stroke="#e5c07b"/>

    <!-- right outcomes (uniform stroke) -->
    <rect x="420" y="90" width="360" height="56" rx="8" stroke="#7aa2ff"/>
    <rect x="420" y="180" width="360" height="56" rx="8" stroke="#7aa2ff"/>
    <rect x="420" y="270" width="360" height="56" rx="8" stroke="#7aa2ff"/>
    <rect x="420" y="360" width="360" height="56" rx="8" stroke="#7aa2ff"/>
  </g>

  <!-- questions -->
  <g font-family="Verdana,Arial,sans-serif" font-size="12" fill="#e0e6ee">
    <text x="74" y="88" fill="#7aa2ff">Dataset small? (≈ &lt;10MB or &lt;10k records)</text>
    <text x="74" y="178" fill="#d57a7a">Low update frequency?</text>
    <text x="74" y="268" fill="#5ec69a">Need async/paging?</text>
    <text x="74" y="358" fill="#c792ea">Editor-driven authoring?</text>
    <text x="74" y="448" fill="#e5c07b">Untrusted inputs / security concerns?</text>
  </g>

  <!-- outcomes -->
  <g font-family="Verdana,Arial,sans-serif" font-size="12" fill="#e0e6ee">
    <text x="432" y="118">ScriptableObject Singleton (Resources)</text>
    <text x="432" y="208">Addressables (packs; async)</text>
    <text x="432" y="298">Streaming Assets / Binary Blobs</text>
    <text x="432" y="388">Remote Service / External DB</text>
  </g>

  <!-- connectors -->
  <!-- colored connectors grouped by question (orthogonal routes, non-overlapping) -->
  <g stroke-width="2">
    <!-- small dataset YES -> SO singleton (blue) -->
    <g stroke="#7aa2ff" fill="none">
      <polyline points="340,88 380,88 380,112 410,112"/>
      <polygon fill="#7aa2ff" points="410,106 410,118 420,112"/>
    </g>
    <!-- low update YES -> SO singleton (red) -->
    <g stroke="#d57a7a" fill="none">
      <polyline points="340,178 360,178 360,124 410,124"/>
      <polygon fill="#d57a7a" points="410,118 410,130 420,124"/>
    </g>
    <!-- async/paging YES -> Addressables (green) -->
    <g stroke="#5ec69a" fill="none">
      <polyline points="340,268 370,268 370,202 410,202"/>
      <polygon fill="#5ec69a" points="410,196 410,208 420,202"/>
    </g>
    <!-- async/paging YES -> Streaming (green) -->
    <g stroke="#5ec69a" fill="none">
      <polyline points="340,268 390,268 390,298 410,298"/>
      <polygon fill="#5ec69a" points="410,292 410,304 420,298"/>
    </g>
    <!-- editor authoring YES -> SO singleton (purple) -->
    <g stroke="#c792ea" fill="none">
      <polyline points="340,358 350,358 350,136 410,136"/>
      <polygon fill="#c792ea" points="410,130 410,142 420,136"/>
    </g>
    <!-- editor authoring YES -> Addressables (purple) -->
    <g stroke="#c792ea" fill="none">
      <polyline points="340,358 365,358 365,216 410,216"/>
      <polygon fill="#c792ea" points="410,210 410,222 420,216"/>
    </g>
    <!-- security concerns YES -> Remote/External DB (gold) -->
    <g stroke="#e5c07b" fill="none">
      <polyline points="340,448 380,448 380,388 410,388"/>
      <polygon fill="#e5c07b" points="410,382 410,394 420,388"/>
    </g>
  </g>

  <!-- hints -->
  <g font-family="Verdana,Arial,sans-serif" font-size="11" fill="#9fb3c8">
    <text x="432" y="134">+ Simple, immediate, editor-friendly</text>
    <text x="432" y="224">+ Async loading, large datasets</text>
    <text x="432" y="314">+ Bulk reads, fast binary I/O</text>
    <text x="432" y="404">+ Live updates, server-driven</text>
  </g>

</svg>
