<svg xmlns="http://www.w3.org/2000/svg" width="680" height="340" viewBox="0 0 680 340">
  <rect x="0" y="0" width="680" height="340" fill="#0f0f13"/>
  <g font-family="Verdana,Arial,sans-serif" font-size="12" fill="#c8d1dc">
    <text x="16" y="24">Binary Heap (min-heap) — Tree and array view</text>
  </g>
  <!-- tree nodes -->
  <g fill="#1d2330" stroke="#7aa2ff" stroke-width="2">
    <circle cx="160" cy="120" r="18"/>
    <circle cx="100" cy="190" r="18"/>
    <circle cx="220" cy="190" r="18"/>
    <circle cx="70" cy="260" r="16"/>
    <circle cx="130" cy="260" r="16"/>
    <circle cx="190" cy="260" r="16"/>
    <circle cx="250" cy="260" r="16"/>
  </g>
  <!-- edges -->
  <g stroke="#9fb3c8" stroke-width="2">
    <line x1="160" y1="138" x2="100" y2="172"/>
    <line x1="160" y1="138" x2="220" y2="172"/>
    <line x1="100" y1="208" x2="70" y2="244"/>
    <line x1="100" y1="208" x2="130" y2="244"/>
    <line x1="220" y1="208" x2="190" y2="244"/>
    <line x1="220" y1="208" x2="250" y2="244"/>
  </g>
  <!-- labels in nodes -->
  <g font-family="Verdana,Arial,sans-serif" font-size="11" fill="#c8d1dc" text-anchor="middle">
    <text x="160" y="124">1</text>
    <text x="100" y="194">3</text>
    <text x="220" y="194">5</text>
    <text x="70" y="264">7</text>
    <text x="130" y="264">8</text>
    <text x="190" y="264">9</text>
    <text x="250" y="264">12</text>
  </g>
  <!-- array view -->
  <g fill="none" stroke="#9fb3c8" stroke-width="2">
    <rect x="360" y="90" width="280" height="60"/>
    <line x1="400" y1="90" x2="400" y2="150"/>
    <line x1="440" y1="90" x2="440" y2="150"/>
    <line x1="480" y1="90" x2="480" y2="150"/>
    <line x1="520" y1="90" x2="520" y2="150"/>
    <line x1="560" y1="90" x2="560" y2="150"/>
    <line x1="600" y1="90" x2="600" y2="150"/>
  </g>
  <g font-family="Verdana,Arial,sans-serif" font-size="11" fill="#c8d1dc" text-anchor="middle">
    <text x="380" y="130">1</text>
    <text x="420" y="130">3</text>
    <text x="460" y="130">5</text>
    <text x="500" y="130">7</text>
    <text x="540" y="130">8</text>
    <text x="580" y="130">9</text>
    <text x="620" y="130">12</text>
    <text x="500" y="80">Array (level-order)</text>
  </g>
</svg>

