<svg xmlns="http://www.w3.org/2000/svg" width="560" height="420" viewBox="0 0 560 420">
  <rect x="0" y="0" width="560" height="420" fill="#0f0f13"/>
  <g font-family="Verdana,Arial,sans-serif" font-size="14" fill="#c8d1dc">
    <text x="16" y="26">R-Tree (3D) — MBR Hierarchy</text>
  </g>
  <!-- object boxes (3D cuboids, projected) -->
  <g stroke="#7aa2ff" stroke-width="2" fill="rgba(122,162,255,0.12)">
    <!-- helper: dx=20, dy=-15 for back face offset -->
    <!-- box 1 -->
    <rect x="140" y="180" width="40" height="30"/>
    <rect x="160" y="165" width="40" height="30"/>
    <line x1="140" y1="180" x2="160" y2="165"/>
    <line x1="180" y1="180" x2="200" y2="165"/>
    <line x1="140" y1="210" x2="160" y2="195"/>
    <line x1="180" y1="210" x2="200" y2="195"/>
    <!-- box 2 -->
    <rect x="210" y="210" width="35" height="26"/>
    <rect x="230" y="195" width="35" height="26"/>
    <line x1="210" y1="210" x2="230" y2="195"/>
    <line x1="245" y1="210" x2="265" y2="195"/>
    <line x1="210" y1="236" x2="230" y2="221"/>
    <line x1="245" y1="236" x2="265" y2="221"/>
    <!-- box 3 -->
    <rect x="280" y="160" width="45" height="35"/>
    <rect x="300" y="145" width="45" height="35"/>
    <line x1="280" y1="160" x2="300" y2="145"/>
    <line x1="325" y1="160" x2="345" y2="145"/>
    <line x1="280" y1="195" x2="300" y2="180"/>
    <line x1="325" y1="195" x2="345" y2="180"/>
    <!-- box 4 -->
    <rect x="340" y="240" width="50" height="38"/>
    <rect x="360" y="225" width="50" height="38"/>
    <line x1="340" y1="240" x2="360" y2="225"/>
    <line x1="390" y1="240" x2="410" y2="225"/>
    <line x1="340" y1="278" x2="360" y2="263"/>
    <line x1="390" y1="278" x2="410" y2="263"/>
    <!-- box 5 -->
    <rect x="400" y="190" width="40" height="28"/>
    <rect x="420" y="175" width="40" height="28"/>
    <line x1="400" y1="190" x2="420" y2="175"/>
    <line x1="440" y1="190" x2="460" y2="175"/>
    <line x1="400" y1="218" x2="420" y2="203"/>
    <line x1="440" y1="218" x2="460" y2="203"/>
  </g>
  <!-- MBR groups (3D dashed cuboids) -->
  <g fill="none" stroke="#66d9a8" stroke-width="2.5" stroke-dasharray="8 6">
    <!-- left group -->
    <rect x="120" y="160" width="220" height="110"/>
    <rect x="140" y="145" width="220" height="110"/>
    <line x1="120" y1="160" x2="140" y2="145"/>
    <line x1="340" y1="160" x2="360" y2="145"/>
    <line x1="120" y1="270" x2="140" y2="255"/>
    <line x1="340" y1="270" x2="360" y2="255"/>
    <!-- right group -->
    <rect x="320" y="180" width="140" height="120"/>
    <rect x="340" y="165" width="140" height="120"/>
    <line x1="320" y1="180" x2="340" y2="165"/>
    <line x1="460" y1="180" x2="480" y2="165"/>
    <line x1="320" y1="300" x2="340" y2="285"/>
    <line x1="460" y1="300" x2="480" y2="285"/>
  </g>
  <!-- axis hints (outside); consistent with KD/Octree -->
  <g stroke="#9fb3c8" stroke-width="1.5" fill="none" opacity="0.85">
    <line x1="60" y1="380" x2="120" y2="380"/>
    <polygon fill="#9fb3c8" points="114,374 114,386 126,380"/>
    <line x1="60" y1="380" x2="90" y2="360"/>
    <polygon fill="#9fb3c8" points="86,356 93,364 98,358"/>
    <line x1="60" y1="380" x2="60" y2="340"/>
    <polygon fill="#9fb3c8" points="54,346 66,346 60,334"/>
  </g>
  <g font-family="Verdana,Arial,sans-serif" font-size="11" text-anchor="start">
    <rect x="122" y="372" width="22" height="16" rx="6" ry="6" fill="#242a34" stroke="#3a4354" stroke-width="1"/>
    <text x="126" y="384" fill="#e0e6ee">+x</text>
    <rect x="92" y="349" width="22" height="16" rx="6" ry="6" fill="#242a34" stroke="#3a4354" stroke-width="1"/>
    <text x="96" y="361" fill="#e0e6ee">+y</text>
    <rect x="50" y="327" width="22" height="16" rx="6" ry="6" fill="#242a34" stroke="#3a4354" stroke-width="1"/>
    <text x="54" y="339" fill="#e0e6ee">+z</text>
  </g>
</svg>
