<svg xmlns="http://www.w3.org/2000/svg" width="520" height="320" viewBox="0 0 520 320">
  <rect x="0" y="0" width="520" height="320" fill="#0f0f13"/>
  <g font-family="Verdana,Arial,sans-serif" font-size="12" fill="#c8d1dc">
    <text x="16" y="24">Convex Hull (Monotone Chain / Jarvis)</text>
  </g>
  <!-- random points -->
  <g fill="#7aa2ff">
    <circle cx="90" cy="240" r="4"/>
    <circle cx="160" cy="220" r="4"/>
    <circle cx="210" cy="260" r="4"/>
    <circle cx="280" cy="200" r="4"/>
    <circle cx="340" cy="150" r="4"/>
    <circle cx="420" cy="220" r="4"/>
    <circle cx="460" cy="110" r="4"/>
    <circle cx="120" cy="100" r="4"/>
    <circle cx="260" cy="120" r="4"/>
    <circle cx="200" cy="160" r="4"/>
    <circle cx="300" cy="260" r="4"/>
    <circle cx="420" cy="80" r="4"/>
  </g>
  <!-- hull polygon -->
  <g fill="none" stroke="#66d9a8" stroke-width="2.5">
    <!-- Include colinear/lower extreme point on the hull -->
    <polygon points="90,240 160,220 210,260 300,260 420,220 460,110 420,80 120,100"/>
  </g>
  <!-- labels -->
  <g font-family="Verdana,Arial,sans-serif" font-size="11" fill="#9fb3c8">
    <text x="400" y="270">Hull</text>
  </g>
</svg>
