<svg xmlns="http://www.w3.org/2000/svg" width="640" height="220" viewBox="0 0 640 220">
  <rect x="0" y="0" width="640" height="220" fill="#0f0f13"/>
  <g font-family="Verdana,Arial,sans-serif" font-size="12" fill="#c8d1dc">
    <text x="16" y="24">Cyclic Buffer (Ring Buffer)</text>
  </g>
  <!-- backing array cells -->
  <g fill="none" stroke="#9fb3c8" stroke-width="2">
    <rect x="40" y="70" width="560" height="60"/>
    <!-- 8 slots -->
    <line x1="110" y1="70" x2="110" y2="130"/>
    <line x1="180" y1="70" x2="180" y2="130"/>
    <line x1="250" y1="70" x2="250" y2="130"/>
    <line x1="320" y1="70" x2="320" y2="130"/>
    <line x1="390" y1="70" x2="390" y2="130"/>
    <line x1="460" y1="70" x2="460" y2="130"/>
    <line x1="530" y1="70" x2="530" y2="130"/>
  </g>
  <!-- head/tail pointers -->
  <g fill="#66d9a8" stroke="#66d9a8">
    <!-- tail at first filled slot -->
    <polygon points="145,58 155,68 165,58 155,60"/>
    <!-- head at last filled slot -->
    <polygon points="325,150 335,140 345,150 335,148"/>
  </g>
  <g font-family="Verdana,Arial,sans-serif" font-size="11" fill="#c8d1dc">
    <text x="140" y="54">tail</text>
    <text x="318" y="170">head</text>
    <text x="60" y="152">contiguous occupied region</text>
  </g>
  <!-- contiguous filled cells to indicate data -->
  <g fill="rgba(122,162,255,0.22)" stroke="#7aa2ff">
    <rect x="110" y="70" width="70" height="60"/>
    <rect x="180" y="70" width="70" height="60"/>
    <rect x="250" y="70" width="70" height="60"/>
    <rect x="320" y="70" width="70" height="60"/>
  </g>
</svg>
