<svg xmlns="http://www.w3.org/2000/svg" width="640" height="220" viewBox="0 0 640 220">
  <rect x="0" y="0" width="640" height="220" fill="#0f0f13"/>
  <g font-family="Verdana,Arial,sans-serif" font-size="12" fill="#c8d1dc">
    <text x="16" y="24">Cyclic Buffer (Ring Buffer)</text>
  </g>
  <!-- backing array cells -->
  <g fill="none" stroke="#9fb3c8" stroke-width="2">
    <rect x="40" y="70" width="560" height="60"/>
    <!-- 8 slots -->
    <line x1="110" y1="70" x2="110" y2="130"/>
    <line x1="180" y1="70" x2="180" y2="130"/>
    <line x1="250" y1="70" x2="250" y2="130"/>
    <line x1="320" y1="70" x2="320" y2="130"/>
    <line x1="390" y1="70" x2="390" y2="130"/>
    <line x1="460" y1="70" x2="460" y2="130"/>
    <line x1="530" y1="70" x2="530" y2="130"/>
  </g>
  <!-- head/tail pointers -->
  <g fill="#66d9a8" stroke="#66d9a8">
    <polygon points="150,150 160,140 170,150 160,148"/>
    <polygon points="500,58 510,68 520,58 510,60"/>
  </g>
  <g font-family="Verdana,Arial,sans-serif" font-size="11" fill="#9fb3c8">
    <text x="138" y="170">head</text>
    <text x="490" y="54">tail</text>
    <text x="60" y="150">wrap-around on increment</text>
  </g>
  <!-- a few filled cells to indicate data -->
  <g fill="rgba(122,162,255,0.22)" stroke="#7aa2ff">
    <rect x="40" y="70" width="70" height="60"/>
    <rect x="110" y="70" width="70" height="60"/>
    <rect x="460" y="70" width="70" height="60"/>
  </g>
</svg>

