<svg xmlns="http://www.w3.org/2000/svg" width="640" height="220" viewBox="0 0 640 220">
  <rect x="0" y="0" width="640" height="220" fill="#0f0f13"/>
  <g font-family="Verdana,Arial,sans-serif" font-size="12" fill="#c8d1dc">
    <text x="16" y="24">Queue vs Deque</text>
  </g>
  <!-- queue -->
  <g fill="none" stroke="#9fb3c8" stroke-width="2">
    <rect x="60" y="70" width="200" height="50"/>
    <line x1="100" y1="70" x2="100" y2="120"/>
    <line x1="140" y1="70" x2="140" y2="120"/>
    <line x1="180" y1="70" x2="180" y2="120"/>
    <line x1="220" y1="70" x2="220" y2="120"/>
  </g>
  <!-- queue arrows: color-coded -->
  <g stroke="#5ec69a" fill="#5ec69a">
    <!-- enqueue: arrow below, pointing up into queue (length aligned to label) -->
    <line x1="60" y1="160" x2="60" y2="130"/>
    <polygon points="54,140 66,140 60,128"/>
  </g>
  <g stroke="#d57a7a" fill="#d57a7a">
    <!-- dequeue: arrow below, pointing down away from rightmost occupied cell (x=200), tip near label -->
    <line x1="200" y1="120" x2="200" y2="160"/>
    <polygon points="194,160 206,160 200,170"/>
  </g>
  <g font-family="Verdana,Arial,sans-serif" font-size="11">
    <text x="60" y="170" text-anchor="middle" fill="#5ec69a">enqueue</text>
    <text x="200" y="170" text-anchor="middle" fill="#d57a7a">dequeue</text>
  </g>
  <g font-family="Verdana,Arial,sans-serif" font-size="11" fill="#9fb3c8">
    <text x="60" y="62">queue</text>
  </g>
  <!-- queue: example occupied cells -->
  <g fill="rgba(122,162,255,0.22)" stroke="#7aa2ff">
    <rect x="100" y="70" width="40" height="50"/>
    <rect x="140" y="70" width="40" height="50"/>
    <rect x="180" y="70" width="40" height="50"/>
  </g>
  <!-- deque -->
  <g fill="none" stroke="#9fb3c8" stroke-width="2">
    <rect x="360" y="70" width="200" height="50"/>
    <line x1="400" y1="70" x2="400" y2="120"/>
    <line x1="440" y1="70" x2="440" y2="120"/>
    <line x1="480" y1="70" x2="480" y2="120"/>
    <line x1="520" y1="70" x2="520" y2="120"/>
    <line x1="560" y1="70" x2="560" y2="120"/>
  </g>
  <!-- deque arrows: color-coded and length-aligned to labels -->
  <!-- pushes (green) -->
  <g stroke="#5ec69a" fill="#5ec69a">
    <!-- push_front (label y=168) -->
    <line x1="360" y1="158" x2="360" y2="130"/>
    <polygon points="354,140 366,140 360,128"/>
    <!-- push_back (label y=188) -->
    <line x1="540" y1="178" x2="540" y2="130"/>
    <polygon points="534,140 546,140 540,128"/>
  </g>
  <!-- pops (red) -->
  <g stroke="#d57a7a" fill="#d57a7a">
    <!-- pop_front (label y=188) -->
    <line x1="420" y1="120" x2="420" y2="178"/>
    <polygon points="414,178 426,178 420,188"/>
    <!-- pop_back (label y=168) -->
    <line x1="500" y1="120" x2="500" y2="158"/>
    <polygon points="494,158 506,158 500,168"/>
  </g>
  <g font-family="Verdana,Arial,sans-serif" font-size="11">
    <!-- staggered labels to avoid overlap; pushes = green, pops = red -->
    <text x="360" y="168" text-anchor="middle" fill="#5ec69a">push_front</text>
    <text x="420" y="188" text-anchor="middle" fill="#d57a7a">pop_front</text>
    <text x="500" y="168" text-anchor="middle" fill="#d57a7a">pop_back</text>
    <text x="540" y="188" text-anchor="middle" fill="#5ec69a">push_back</text>
  </g>
  <!-- side hints -->
  <g font-family="Verdana,Arial,sans-serif" font-size="10" fill="#9fb3c8">
    <text x="350" y="64">front</text>
    <text x="560" y="64">back</text>
  </g>
  <g font-family="Verdana,Arial,sans-serif" font-size="11" fill="#9fb3c8">
    <text x="360" y="62">deque</text>
  </g>
  <!-- deque: example occupied cells -->
  <g fill="rgba(122,162,255,0.22)" stroke="#7aa2ff">
    <rect x="400" y="70" width="40" height="50"/>
    <rect x="440" y="70" width="40" height="50"/>
    <rect x="480" y="70" width="40" height="50"/>
  </g>
  <!-- light head/tail markers -->
  <g fill="#5ec69a" stroke="#5ec69a" opacity="0.85">
    <!-- queue markers: tail at leftmost shaded (center 120), head at rightmost shaded (center 200) -->
    <circle cx="120" cy="60" r="4"/>
    <circle cx="200" cy="60" r="4"/>
  </g>
  <g font-family="Verdana,Arial,sans-serif" font-size="10" fill="#9fb3c8" text-anchor="middle">
    <text x="120" y="52">tail</text>
    <text x="200" y="52">head</text>
  </g>
  <g fill="#5ec69a" stroke="#5ec69a" opacity="0.85">
    <!-- deque markers: tail at leftmost shaded (center 420), head at rightmost shaded (center 500) -->
    <circle cx="420" cy="60" r="4"/>
    <circle cx="500" cy="60" r="4"/>
  </g>
  <g font-family="Verdana,Arial,sans-serif" font-size="10" fill="#9fb3c8" text-anchor="middle">
    <text x="420" y="52">tail</text>
    <text x="500" y="52">head</text>
  </g>
</svg>
