<svg xmlns="http://www.w3.org/2000/svg" width="640" height="220" viewBox="0 0 640 220">
  <rect x="0" y="0" width="640" height="220" fill="#0f0f13"/>
  <g font-family="Verdana,Arial,sans-serif" font-size="12" fill="#c8d1dc">
    <text x="16" y="24">Deque (Double-Ended Queue)</text>
  </g>
  <!-- deque nodes in array-like view -->
  <g fill="none" stroke="#9fb3c8" stroke-width="2">
    <rect x="80" y="80" width="480" height="60"/>
    <line x1="140" y1="80" x2="140" y2="140"/>
    <line x1="200" y1="80" x2="200" y2="140"/>
    <line x1="260" y1="80" x2="260" y2="140"/>
    <line x1="320" y1="80" x2="320" y2="140"/>
    <line x1="380" y1="80" x2="380" y2="140"/>
    <line x1="440" y1="80" x2="440" y2="140"/>
    <line x1="500" y1="80" x2="500" y2="140"/>
  </g>
  <!-- arrows indicating push/pop at both ends (bottom semantics, shorter arrows) -->
  <g stroke="#5ec69a" fill="#5ec69a">
    <!-- push_front: bottom-up; arrowhead apex touches bottom border at y=140 (center x=110) -->
    <line x1="110" y1="175" x2="110" y2="140"/>
    <polygon points="104,150 116,150 110,140"/>
    <!-- pop_back: bottom-down; arrowhead tip at bottom, pointing toward label (center x=290) -->
    <line x1="290" y1="140" x2="290" y2="175"/>
    <polygon points="284,175 296,175 290,185"/>
  </g>
  <!-- labels (lighter, separate for readability) -->
  <g font-family="Verdana,Arial,sans-serif" font-size="11" fill="#c8d1dc" text-anchor="middle">
    <text x="110" y="195">push_front</text>
    <text x="290" y="195">pop_back</text>
  </g>
  <!-- filled elements -->
  <g fill="rgba(122,162,255,0.22)" stroke="#7aa2ff">
    <rect x="140" y="80" width="60" height="60"/>
    <rect x="200" y="80" width="60" height="60"/>
    <rect x="260" y="80" width="60" height="60"/>
  </g>
  <!-- light head/tail markers aligned with operations -->
  <g fill="#5ec69a" stroke="#5ec69a" opacity="0.85">
    <!-- head at new leftmost shaded (center 170), tail at rightmost shaded (center 290) -->
    <circle cx="170" cy="70" r="4"/>
    <circle cx="290" cy="70" r="4"/>
  </g>
  <g font-family="Verdana,Arial,sans-serif" font-size="10" fill="#9fb3c8" text-anchor="middle">
    <text x="170" y="62">head</text>
    <text x="290" y="62">tail</text>
  </g>
</svg>
