<svg xmlns="http://www.w3.org/2000/svg" width="640" height="220" viewBox="0 0 640 220">
  <rect x="0" y="0" width="640" height="220" fill="#0f0f13"/>
  <g font-family="Verdana,Arial,sans-serif" font-size="12" fill="#c8d1dc">
    <text x="16" y="24">Deque (Double-Ended Queue)</text>
  </g>
  <!-- deque nodes in array-like view -->
  <g fill="none" stroke="#9fb3c8" stroke-width="2">
    <rect x="80" y="80" width="480" height="60"/>
    <line x1="140" y1="80" x2="140" y2="140"/>
    <line x1="200" y1="80" x2="200" y2="140"/>
    <line x1="260" y1="80" x2="260" y2="140"/>
    <line x1="320" y1="80" x2="320" y2="140"/>
    <line x1="380" y1="80" x2="380" y2="140"/>
    <line x1="440" y1="80" x2="440" y2="140"/>
  </g>
  <!-- arrows indicating push/pop at both ends -->
  <g stroke="#5ec69a" fill="#5ec69a">
    <line x1="80" y1="70" x2="80" y2="50"/>
    <polygon points="74,52 86,52 80,42"/>
    <line x1="560" y1="150" x2="560" y2="170"/>
    <polygon points="554,168 566,168 560,178"/>
  </g>
  <!-- labels (lighter, separate for readability) -->
  <g font-family="Verdana,Arial,sans-serif" font-size="11" fill="#c8d1dc">
    <text x="36" y="38">push_front / pop_front</text>
    <text x="468" y="196">push_back / pop_back</text>
  </g>
  <!-- filled elements -->
  <g fill="rgba(122,162,255,0.22)" stroke="#7aa2ff">
    <rect x="80" y="80" width="60" height="60"/>
    <rect x="140" y="80" width="60" height="60"/>
    <rect x="200" y="80" width="60" height="60"/>
    <rect x="260" y="80" width="60" height="60"/>
  </g>
</svg>
