<svg xmlns="http://www.w3.org/2000/svg" width="640" height="220" viewBox="0 0 640 220">
  <rect x="0" y="0" width="640" height="220" fill="#0f0f13"/>
  <g font-family="Verdana,Arial,sans-serif" font-size="12" fill="#c8d1dc">
    <text x="16" y="24">Queue vs Deque</text>
  </g>
  <!-- queue -->
  <g fill="none" stroke="#9fb3c8" stroke-width="2">
    <rect x="60" y="70" width="200" height="50"/>
    <line x1="100" y1="70" x2="100" y2="120"/>
    <line x1="140" y1="70" x2="140" y2="120"/>
    <line x1="180" y1="70" x2="180" y2="120"/>
    <line x1="220" y1="70" x2="220" y2="120"/>
  </g>
  <g stroke="#5ec69a" fill="#5ec69a">
    <!-- enqueue: arrow below, pointing up into queue -->
    <line x1="60" y1="150" x2="60" y2="130"/>
    <polygon points="54,138 66,138 60,128"/>
    <!-- dequeue: arrow below, pointing up at right edge of queue -->
    <line x1="260" y1="150" x2="260" y2="130"/>
    <polygon points="254,138 266,138 260,128"/>
  </g>
  <g font-family="Verdana,Arial,sans-serif" font-size="11" fill="#c8d1dc">
    <text x="60" y="170" text-anchor="middle">enqueue</text>
    <text x="260" y="170" text-anchor="end">dequeue</text>
  </g>
  <g font-family="Verdana,Arial,sans-serif" font-size="11" fill="#9fb3c8">
    <text x="60" y="62">queue</text>
  </g>
  <!-- queue: example occupied cells -->
  <g fill="rgba(122,162,255,0.22)" stroke="#7aa2ff">
    <rect x="100" y="70" width="40" height="50"/>
    <rect x="140" y="70" width="40" height="50"/>
    <rect x="180" y="70" width="40" height="50"/>
  </g>
  <!-- deque -->
  <g fill="none" stroke="#9fb3c8" stroke-width="2">
    <rect x="360" y="70" width="200" height="50"/>
    <line x1="400" y1="70" x2="400" y2="120"/>
    <line x1="440" y1="70" x2="440" y2="120"/>
    <line x1="480" y1="70" x2="480" y2="120"/>
    <line x1="520" y1="70" x2="520" y2="120"/>
    <line x1="560" y1="70" x2="560" y2="120"/>
  </g>
  <g stroke="#5ec69a" fill="#5ec69a">
    <!-- push_front: arrow below, pointing up into deque -->
    <line x1="360" y1="150" x2="360" y2="130"/>
    <polygon points="354,138 366,138 360,128"/>
    <!-- pop_back: arrow below, aligned to right edge of deque -->
    <line x1="560" y1="150" x2="560" y2="130"/>
    <polygon points="554,138 566,138 560,128"/>
  </g>
  <g font-family="Verdana,Arial,sans-serif" font-size="11" fill="#c8d1dc">
    <text x="360" y="170" text-anchor="middle">push_front</text>
    <text x="560" y="170" text-anchor="end">pop_back</text>
  </g>
  <g font-family="Verdana,Arial,sans-serif" font-size="11" fill="#9fb3c8">
    <text x="360" y="62">deque</text>
  </g>
  <!-- deque: example occupied cells -->
  <g fill="rgba(122,162,255,0.22)" stroke="#7aa2ff">
    <rect x="400" y="70" width="40" height="50"/>
    <rect x="440" y="70" width="40" height="50"/>
    <rect x="480" y="70" width="40" height="50"/>
  </g>
  <!-- light head/tail markers -->
  <g fill="#5ec69a" stroke="#5ec69a" opacity="0.85">
    <!-- queue markers: tail at leftmost shaded (center 120), head at rightmost shaded (center 200) -->
    <circle cx="120" cy="60" r="4"/>
    <circle cx="200" cy="60" r="4"/>
  </g>
  <g font-family="Verdana,Arial,sans-serif" font-size="10" fill="#9fb3c8" text-anchor="middle">
    <text x="120" y="52">tail</text>
    <text x="200" y="52">head</text>
  </g>
  <g fill="#5ec69a" stroke="#5ec69a" opacity="0.85">
    <!-- deque markers: tail at leftmost shaded (center 420), head at rightmost shaded (center 500) -->
    <circle cx="420" cy="60" r="4"/>
    <circle cx="500" cy="60" r="4"/>
  </g>
  <g font-family="Verdana,Arial,sans-serif" font-size="10" fill="#9fb3c8" text-anchor="middle">
    <text x="420" y="52">tail</text>
    <text x="500" y="52">head</text>
  </g>
</svg>
