<svg xmlns="http://www.w3.org/2000/svg" width="640" height="220" viewBox="0 0 640 220">
  <rect x="0" y="0" width="640" height="220" fill="#0f0f13"/>
  <g font-family="Verdana,Arial,sans-serif" font-size="12" fill="#c8d1dc">
    <text x="16" y="24">Deque (Double-Ended Queue)</text>
  </g>
  <!-- deque nodes in array-like view -->
  <g fill="none" stroke="#9fb3c8" stroke-width="2">
    <rect x="80" y="80" width="480" height="60"/>
    <line x1="140" y1="80" x2="140" y2="140"/>
    <line x1="200" y1="80" x2="200" y2="140"/>
    <line x1="260" y1="80" x2="260" y2="140"/>
    <line x1="320" y1="80" x2="320" y2="140"/>
    <line x1="380" y1="80" x2="380" y2="140"/>
    <line x1="440" y1="80" x2="440" y2="140"/>
    <line x1="500" y1="80" x2="500" y2="140"/>
  </g>
  <!-- arrows indicating push/pop at both ends (color-coded, length aligned to labels) -->
  <!-- pushes (green) -->
  <g stroke="#5ec69a" fill="#5ec69a">
    <!-- push_front: up; base near label (y=205) -->
    <line x1="110" y1="195" x2="110" y2="140"/>
    <polygon points="104,150 116,150 110,140"/>
    <!-- push_back: up; base near label (y=220) -->
    <line x1="350" y1="210" x2="350" y2="140"/>
    <polygon points="344,150 356,150 350,140"/>
  </g>
  <!-- pops (red) -->
  <g stroke="#d57a7a" fill="#d57a7a">
    <!-- pop_front: down; tip near label (y=220) -->
    <line x1="170" y1="150" x2="170" y2="210"/>
    <polygon points="164,210 176,210 170,220"/>
    <!-- pop_back: down; tip near label (y=205) -->
    <line x1="290" y1="150" x2="290" y2="195"/>
    <polygon points="284,195 296,195 290,205"/>
  </g>
  <!-- labels (color-coded and staggered) -->
  <g font-family="Verdana,Arial,sans-serif" font-size="11" text-anchor="middle">
    <text x="110" y="205" fill="#5ec69a">push_front</text>
    <text x="170" y="220" fill="#d57a7a">pop_front</text>
    <text x="290" y="205" fill="#d57a7a">pop_back</text>
    <text x="350" y="220" fill="#5ec69a">push_back</text>
  </g>
  <!-- side hints -->
  <g font-family="Verdana,Arial,sans-serif" font-size="10" fill="#9fb3c8">
    <text x="84" y="76">front</text>
    <text x="554" y="76" text-anchor="end">back</text>
  </g>
  <!-- filled elements -->
  <g fill="rgba(122,162,255,0.22)" stroke="#7aa2ff">
    <rect x="140" y="80" width="60" height="60"/>
    <rect x="200" y="80" width="60" height="60"/>
    <rect x="260" y="80" width="60" height="60"/>
  </g>
  <!-- light head/tail markers aligned with operations -->
  <g fill="#5ec69a" stroke="#5ec69a" opacity="0.85">
    <!-- head at new leftmost shaded (center 170), tail at rightmost shaded (center 290) -->
    <circle cx="170" cy="70" r="4"/>
    <circle cx="290" cy="70" r="4"/>
  </g>
  <g font-family="Verdana,Arial,sans-serif" font-size="10" fill="#9fb3c8" text-anchor="middle">
    <text x="170" y="62">head</text>
    <text x="290" y="62">tail</text>
  </g>
</svg>
