<svg xmlns="http://www.w3.org/2000/svg" width="820" height="360" viewBox="0 0 820 360">
  <rect x="0" y="0" width="820" height="360" fill="#0f0f13"/>
  <g font-family="Verdana,Arial,sans-serif" font-size="14" fill="#c8d1dc">
    <text x="16" y="26">Effects/Tags Pipeline</text>
  </g>
  <!-- stages -->
  <g fill="#1d2330" stroke="#7aa2ff" stroke-width="2">
    <rect x="30" y="60" width="180" height="60" rx="8"/>
    <rect x="230" y="60" width="180" height="60" rx="8"/>
    <rect x="430" y="60" width="180" height="60" rx="8"/>
    <rect x="630" y="60" width="160" height="60" rx="8"/>
  </g>
  <g font-family="Verdana,Arial,sans-serif" font-size="12" fill="#e0e6ee" text-anchor="middle">
    <text x="120" y="95">Source Effect</text>
    <text x="320" y="95">Tag Filters</text>
    <text x="520" y="95">Target Selection</text>
    <text x="710" y="95">Apply Modifiers</text>
  </g>
  <!-- arrows -->
  <g stroke="#5ec69a" fill="#5ec69a" stroke-width="2">
    <line x1="210" y1="90" x2="230" y2="90"/>
    <polygon points="224,84 224,96 234,90"/>
    <line x1="410" y1="90" x2="430" y2="90"/>
    <polygon points="424,84 424,96 434,90"/>
    <line x1="610" y1="90" x2="630" y2="90"/>
    <polygon points="624,84 624,96 634,90"/>
  </g>
  <!-- tag filters detail -->
  <g fill="none" stroke="#9fb3c8" stroke-dasharray="6 6" stroke-width="2">
    <rect x="250" y="140" width="170" height="80" rx="8"/>
  </g>
  <g font-family="Verdana,Arial,sans-serif" font-size="11" fill="#c8d1dc">
    <text x="260" y="158">- whitelist: {ally,ground}</text>
    <text x="260" y="176">- blacklist: {frozen}</text>
    <text x="260" y="194">- stack rules: refresh/add</text>
  </g>
  <!-- target selection detail -->
  <g fill="none" stroke="#9fb3c8" stroke-dasharray="6 6" stroke-width="2">
    <rect x="450" y="140" width="160" height="100" rx="8"/>
  </g>
  <g font-family="Verdana,Arial,sans-serif" font-size="11" fill="#c8d1dc">
    <text x="460" y="158">- radius: 5m</text>
    <text x="460" y="176">- cone: 45°</text>
    <text x="460" y="194">- LOS: required</text>
    <text x="460" y="212">- per-target cooldown</text>
  </g>
  <!-- apply modifiers detail -->
  <g fill="none" stroke="#9fb3c8" stroke-dasharray="6 6" stroke-width="2">
    <rect x="640" y="140" width="160" height="120" rx="8"/>
  </g>
  <g font-family="Verdana,Arial,sans-serif" font-size="11" fill="#c8d1dc">
    <text x="650" y="158">- base + add + mul</text>
    <text x="650" y="176">- override/clamp</text>
    <text x="650" y="194">- duration/instant</text>
    <text x="650" y="212">- stack: refresh/add</text>
    <text x="650" y="230">- tags added/removed</text>
  </g>
</svg>

