<svg xmlns="http://www.w3.org/2000/svg" width="820" height="380" viewBox="0 0 820 380">
  <rect x="0" y="0" width="820" height="380" fill="#0f0f13"/>
  <g font-family="Verdana,Arial,sans-serif" font-size="14" fill="#c8d1dc">
    <text x="16" y="26">Geometry Edge Cases</text>
  </g>
  <!-- ROW 1: Left — Proper intersection -->
  <g stroke="#7aa2ff" stroke-width="2">
    <line x1="80" y1="120" x2="240" y2="120"/>
    <line x1="160" y1="90" x2="160" y2="150"/>
  </g>
  <g font-family="Verdana,Arial,sans-serif" font-size="11" fill="#9fb3c8" text-anchor="middle">
    <text x="160" y="170">Proper intersection</text>
  </g>

  <!-- ROW 1: Right — Colinear overlap (highlighted) -->
  <g>
    <g stroke="#7aa2ff" stroke-width="2">
      <line x1="460" y1="120" x2="620" y2="120"/>
    </g>
    <g stroke="#5ec69a" stroke-width="4">
      <line x1="500" y1="120" x2="580" y2="120"/>
    </g>
    <g fill="#5ec69a">
      <circle cx="500" cy="120" r="3"/>
      <circle cx="580" cy="120" r="3"/>
    </g>
  </g>
  <g font-family="Verdana,Arial,sans-serif" font-size="11" fill="#9fb3c8" text-anchor="middle">
    <text x="540" y="170">Colinear overlap</text>
  </g>

  <!-- ROW 2: Left — Endpoint touch (different colors) -->
  <g>
    <g stroke="#7aa2ff" stroke-width="2">
      <line x1="80" y1="260" x2="160" y2="260"/>
    </g>
    <g stroke="#d57a7a" stroke-width="2">
      <line x1="160" y1="260" x2="220" y2="300"/>
    </g>
    <g fill="#66d9a8">
      <circle cx="160" cy="260" r="4"/>
    </g>
  </g>
  <g font-family="Verdana,Arial,sans-serif" font-size="11" fill="#9fb3c8" text-anchor="middle">
    <text x="150" y="315">Endpoint touch</text>
  </g>

  <!-- ROW 2: Right — Point-in-polygon boundary -->
  <g font-family="Verdana,Arial,sans-serif" font-size="12" fill="#c8d1dc" text-anchor="middle">
    <text x="540" y="210">Point in Polygon (boundary)</text>
  </g>
  <g fill="none" stroke="#7aa2ff" stroke-width="2">
    <polygon points="460,240 540,220 580,270 500,310"/>
  </g>
  <g fill="#66d9a8">
    <circle cx="540" cy="220" r="4"/>
  </g>
  <g font-family="Verdana,Arial,sans-serif" font-size="11" fill="#9fb3c8" text-anchor="middle">
    <text x="540" y="335">Boundary inclusion rules differ; treat edges consistently.</text>
  </g>
</svg>
