<svg xmlns="http://www.w3.org/2000/svg" width="820" height="380" viewBox="0 0 820 380">
  <rect x="0" y="0" width="820" height="380" fill="#0f0f13"/>
  <g font-family="Verdana,Arial,sans-serif" font-size="14" fill="#c8d1dc">
    <text x="16" y="26">Geometry Edge Cases</text>
  </g>
  <!-- segment intersection cases -->
  <g font-family="Verdana,Arial,sans-serif" font-size="12" fill="#c8d1dc">
    <text x="40" y="60">Segment Intersection</text>
  </g>
  <g stroke="#7aa2ff" stroke-width="2">
    <line x1="40" y1="90" x2="200" y2="90"/>
    <line x1="120" y1="60" x2="120" y2="120"/>
  </g>
  <g font-family="Verdana,Arial,sans-serif" font-size="11" fill="#9fb3c8">
    <text x="40" y="150">Proper intersection</text>
  </g>
  <!-- colinear overlap -->
  <g>
    <g stroke="#7aa2ff" stroke-width="2">
      <line x1="260" y1="90" x2="420" y2="90"/>
    </g>
    <!-- overlapping segment highlighted in green and thicker -->
    <g stroke="#5ec69a" stroke-width="4">
      <line x1="300" y1="90" x2="380" y2="90"/>
    </g>
    <!-- endpoints of overlap marked -->
    <g fill="#5ec69a">
      <circle cx="300" cy="90" r="3"/>
      <circle cx="380" cy="90" r="3"/>
    </g>
  </g>
  <g font-family="Verdana,Arial,sans-serif" font-size="11" fill="#9fb3c8">
    <text x="260" y="150">Colinear overlap</text>
  </g>
  <!-- endpoint touching -->
  <g>
    <g stroke="#7aa2ff" stroke-width="2">
      <line x1="480" y1="90" x2="560" y2="90"/>
    </g>
    <g stroke="#d57a7a" stroke-width="2">
      <line x1="560" y1="90" x2="620" y2="130"/>
    </g>
    <!-- shared endpoint marker -->
    <g fill="#66d9a8">
      <circle cx="560" cy="90" r="4"/>
    </g>
  </g>
  <g font-family="Verdana,Arial,sans-serif" font-size="11" fill="#9fb3c8">
    <text x="480" y="150">Endpoint touch</text>
  </g>
  <!-- point-in-polygon boundary -->
  <g font-family="Verdana,Arial,sans-serif" font-size="12" fill="#c8d1dc">
    <text x="40" y="210">Point in Polygon (boundary)</text>
  </g>
  <g fill="none" stroke="#7aa2ff" stroke-width="2">
    <polygon points="40,240 120,220 160,270 80,310"/>
  </g>
  <g fill="#66d9a8">
    <circle cx="120" cy="220" r="4"/>
  </g>
  <g font-family="Verdana,Arial,sans-serif" font-size="11" fill="#9fb3c8">
    <text x="40" y="335">Boundary inclusion rules differ; treat edges consistently.</text>
  </g>
</svg>
