<svg xmlns="http://www.w3.org/2000/svg" width="540" height="380" viewBox="0 0 540 380">
  <rect x="0" y="0" width="540" height="380" fill="#0f0f13"/>
  <g font-family="Verdana,Arial,sans-serif" font-size="12" fill="#c8d1dc">
    <text x="16" y="24">KD-Tree (2D) — Alternating axis splits</text>
  </g>
  <!-- world bounds -->
  <g fill="none" stroke="#9fb3c8" stroke-width="2">
    <rect x="40" y="60" width="460" height="300"/>
  </g>
  <!-- axis-aligned splits: vertical, horizontal, vertical -->
  <g stroke="#d57a7a" stroke-width="2">
    <line x1="220" y1="60" x2="220" y2="360"/>
  </g>
  <g stroke="#d57a7a" stroke-width="2" stroke-dasharray="6 6">
    <line x1="40" y1="200" x2="220" y2="200"/>
  </g>
  <g stroke="#d57a7a" stroke-width="2">
    <line x1="370" y1="60" x2="370" y2="360"/>
  </g>
  <!-- sample points -->
  <g fill="#7aa2ff">
    <circle cx="100" cy="100" r="4"/>
    <circle cx="160" cy="300" r="4"/>
    <circle cx="280" cy="220" r="4"/>
    <circle cx="310" cy="120" r="4"/>
    <circle cx="420" cy="180" r="4"/>
    <circle cx="470" cy="320" r="4"/>
  </g>
  <!-- color-coded split labels with bubbles -->
  <g font-family="Verdana,Arial,sans-serif" font-size="11">
    <rect x="195" y="66" width="56" height="18" rx="6" ry="6" fill="#242a34" stroke="#d57a7a" stroke-width="1.5"/>
    <text x="199" y="79" fill="#d57a7a">x-split</text>
    <rect x="50" y="185" width="56" height="18" rx="6" ry="6" fill="#242a34" stroke="#d57a7a" stroke-width="1.5"/>
    <text x="54" y="198" fill="#d57a7a">y-split</text>
    <rect x="345" y="66" width="56" height="18" rx="6" ry="6" fill="#242a34" stroke="#d57a7a" stroke-width="1.5"/>
    <text x="349" y="79" fill="#d57a7a">x-split</text>
  </g>
</svg>
