<svg xmlns="http://www.w3.org/2000/svg" width="560" height="420" viewBox="0 0 560 420">
  <rect x="0" y="0" width="560" height="420" fill="#0f0f13"/>
  <g font-family="Verdana,Arial,sans-serif" font-size="14" fill="#c8d1dc">
    <text x="16" y="26">KD-Tree (3D) — Alternating Axis Split Planes</text>
  </g>

  <!-- complete cube wireframe (axonometric) -->
  <g fill="none" stroke="#9fb3c8" stroke-width="2">
    <!-- front face -->
    <rect x="160" y="140" width="240" height="180"/>
    <!-- back face (offset) -->
    <rect x="200" y="110" width="240" height="180"/>
    <!-- connecting edges -->
    <line x1="160" y1="140" x2="200" y2="110"/>
    <line x1="400" y1="140" x2="440" y2="110"/>
    <line x1="160" y1="320" x2="200" y2="290"/>
    <line x1="400" y1="320" x2="440" y2="290"/>
  </g>

  <!-- split planes (projected quads) -->
  <!-- X-split (vertical plane) -->
  <g fill="rgba(213, 122, 122, 0.12)" stroke="#d57a7a" stroke-width="2" stroke-dasharray="6 6">
    <polygon points="240,140 280,110 280,290 240,320"/>
  </g>
  <g font-family="Verdana,Arial,sans-serif" font-size="11" fill="#c8d1dc">
    <text x="230" y="132">x-split</text>
  </g>

  <!-- Z-split (horizontal plane) -->
  <g fill="rgba(94, 198, 154, 0.12)" stroke="#5ec69a" stroke-width="2" stroke-dasharray="6 6">
    <polygon points="160,230 200,200 440,200 400,230"/>
  </g>
  <g font-family="Verdana,Arial,sans-serif" font-size="11" fill="#c8d1dc">
    <text x="412" y="196">z-split</text>
  </g>

  <!-- Y-split (depth-aligned plane parallel to front) -->
  <g fill="rgba(122, 162, 255, 0.10)" stroke="#7aa2ff" stroke-width="2" stroke-dasharray="6 6">
    <polygon points="260,140 300,110 500,110 460,140 260,140 260,320 300,290 500,290 460,320 260,320"/>
  </g>
  <g font-family="Verdana,Arial,sans-serif" font-size="11" fill="#c8d1dc">
    <text x="470" y="132">y-split</text>
  </g>

  <!-- sample points (projected into the volume) -->
  <g fill="#e0e6ee">
    <circle cx="210" cy="260" r="3"/>
    <circle cx="300" cy="190" r="3"/>
    <circle cx="360" cy="240" r="3"/>
    <circle cx="260" cy="300" r="3"/>
    <circle cx="420" cy="180" r="3"/>
  </g>

  <!-- axis hints -->
  <g stroke="#9fb3c8" stroke-width="2" fill="#9fb3c8" font-family="Verdana,Arial,sans-serif" font-size="10">
    <!-- x-axis (screen right) -->
    <line x1="160" y1="350" x2="220" y2="350"/>
    <polygon points="214,344 214,356 226,350"/>
    <text x="228" y="353" fill="#c8d1dc">+x</text>
    <!-- y-axis (screen up-right/back) -->
    <line x1="160" y1="350" x2="190" y2="330"/>
    <polygon points="185,326 192,334 196,328"/>
    <text x="198" y="330" fill="#c8d1dc">+y</text>
    <!-- z-axis (screen up) -->
    <line x1="160" y1="350" x2="160" y2="310"/>
    <polygon points="154,316 166,316 160,304"/>
    <text x="150" y="306" fill="#c8d1dc">+z</text>
  </g>
</svg>
