<svg xmlns="http://www.w3.org/2000/svg" width="820" height="320" viewBox="0 0 820 320">
  <rect x="0" y="0" width="820" height="320" fill="#0f0f13"/>
  <g font-family="Verdana,Arial,sans-serif" font-size="14" fill="#c8d1dc">
    <text x="16" y="26">Reflection Helpers — Scan & Cache</text>
  </g>
  <g fill="#1d2330" stroke="#7aa2ff" stroke-width="2">
    <rect x="40" y="60" width="220" height="50" rx="8"/>
    <rect x="300" y="60" width="220" height="50" rx="8"/>
    <rect x="560" y="60" width="220" height="50" rx="8"/>
  </g>
  <g font-family="Verdana,Arial,sans-serif" font-size="12" fill="#e0e6ee" text-anchor="middle">
    <text x="150" y="92">Scan Assemblies</text>
    <text x="410" y="92">Find Attributes</text>
    <text x="670" y="92">Build Cache</text>
  </g>
  <g stroke="#5ec69a" fill="#5ec69a" stroke-width="2">
    <line x1="260" y1="85" x2="300" y2="85"/>
    <polygon points="294,79 294,91 304,85"/>
    <line x1="520" y1="85" x2="560" y2="85"/>
    <polygon points="554,79 554,91 564,85"/>
  </g>
  <g fill="none" stroke="#9fb3c8" stroke-dasharray="6 6" stroke-width="2">
    <rect x="60" y="140" width="720" height="130" rx="8"/>
  </g>
  <g font-family="Verdana,Arial,sans-serif" font-size="11" fill="#c8d1dc">
    <text x="70" y="160">- Editor: scan on domain reload; Runtime: scan on first use</text>
    <text x="70" y="178">- Caches: type → members with attributes, getters/setters delegates</text>
    <text x="70" y="196">- Invalidation: assembly reloads, explicit clear</text>
  </g>
</svg>

