<?xml version="1.0" encoding="UTF-8"?>
<svg xmlns="http://www.w3.org/2000/svg" width="920" height="440" viewBox="0 0 920 440" version="1.1">
  <title>Relational Components — Discovery &amp; Wiring</title>
  <desc>Shows scene graph (parent/children) and the OnValidate/Awake scan flow that wires [ParentComponent]/[ChildComponent]/[SiblingComponent] with cached lookups.</desc>
  <rect x="0" y="0" width="920" height="440" fill="#0f0f13"/>
  <g font-family="Verdana,Arial,sans-serif" font-size="14" fill="#c8d1dc">
    <text x="16" y="26">Relational Components — Discovery &amp; Wiring</text>
  </g>
  <!-- scene graph (spaced) -->
  <g fill="#1d2330" stroke="#7aa2ff" stroke-width="2">
    <rect x="80" y="60" width="140" height="46" rx="6"/>
    <rect x="40" y="180" width="140" height="46" rx="6"/>
    <rect x="200" y="180" width="140" height="46" rx="6"/>
  </g>
  <g font-family="Verdana,Arial,sans-serif" font-size="12" fill="#e0e6ee" text-anchor="middle">
    <text x="150" y="90">Parent</text>
    <text x="110" y="208">Child A</text>
    <text x="270" y="208">Child B</text>
  </g>
  <!-- relations -->
  <g stroke="#9fb3c8" stroke-width="2">
    <line x1="150" y1="106" x2="110" y2="180"/>
    <line x1="150" y1="106" x2="270" y2="180"/>
  </g>
  <!-- wiring flow (wider, multi-line, spaced) -->
  <g fill="#1d2330" stroke="#7aa2ff" stroke-width="2">
    <rect x="500" y="60" width="380" height="60" rx="8"/>
    <rect x="500" y="150" width="380" height="60" rx="8"/>
    <rect x="500" y="240" width="380" height="60" rx="8"/>
  </g>
  <g font-family="Verdana,Arial,sans-serif" font-size="12" fill="#e0e6ee">
    <text x="510" y="84">
      <tspan x="510" dy="0">OnValidate/Awake: scan components</tspan>
      <tspan x="510" dy="18">with [ParentComponent] / [ChildComponent] / [SiblingComponent]</tspan>
    </text>
    <text x="510" y="174">
      <tspan x="510" dy="0">Resolve references via Transform hierarchy</tspan>
      <tspan x="510" dy="18">and cached lookups</tspan>
    </text>
    <text x="510" y="264">
      <tspan x="510" dy="0">Bind fields/properties; rebind</tspan>
      <tspan x="510" dy="18">on hierarchy changes</tspan>
    </text>
  </g>
  <!-- connectors -->
  <g stroke="#5ec69a" fill="#5ec69a" stroke-width="2">
    <!-- left to first box -->
    <line x1="360" y1="100" x2="500" y2="100"/>
    <polygon points="494,94 494,106 504,100"/>
    <!-- between boxes (vertical) -->
    <line x1="690" y1="120" x2="690" y2="150"/>
    <polygon points="684,144 696,144 690,154"/>
    <line x1="690" y1="210" x2="690" y2="240"/>
    <polygon points="684,234 696,234 690,244"/>
  </g>
</svg>
