<svg xmlns="http://www.w3.org/2000/svg" width="680" height="340" viewBox="0 0 680 340">
  <rect x="0" y="0" width="680" height="340" fill="#0f0f13"/>
  <g font-family="Verdana,Arial,sans-serif" font-size="12" fill="#c8d1dc">
    <text x="16" y="24">Trie (Prefix Tree)</text>
  </g>
  <!-- nodes -->
  <g fill="#1d2330" stroke="#7aa2ff" stroke-width="2">
    <circle cx="140" cy="90" r="16"/>
    <circle cx="80" cy="170" r="16"/>
    <circle cx="200" cy="170" r="16"/>
    <circle cx="40" cy="250" r="16"/>
    <circle cx="120" cy="250" r="16"/>
    <circle cx="200" cy="250" r="16"/>
    <circle cx="280" cy="250" r="16"/>
  </g>
  <!-- edges with letters -->
  <g stroke="#9fb3c8" stroke-width="2">
    <line x1="140" y1="106" x2="80" y2="154"/>
    <line x1="140" y1="106" x2="200" y2="154"/>
    <line x1="80" y1="186" x2="40" y2="234"/>
    <line x1="80" y1="186" x2="120" y2="234"/>
    <line x1="200" y1="186" x2="200" y2="234"/>
    <line x1="200" y1="186" x2="280" y2="234"/>
  </g>
  <g font-family="Verdana,Arial,sans-serif" font-size="11" fill="#c8d1dc">
    <text x="110" y="130">a</text>
    <text x="170" y="130">b</text>
    <text x="56" y="210">t</text>
    <text x="96" y="210">r</text>
    <text x="204" y="210">e</text>
    <text x="236" y="210">o</text>
  </g>
  <!-- terminal markers -->
  <g fill="#66d9a8" font-family="Verdana,Arial,sans-serif" font-size="10">
    <text x="38" y="254">•</text>
    <text x="118" y="254">•</text>
    <text x="198" y="254">•</text>
  </g>
  <g font-family="Verdana,Arial,sans-serif" font-size="11" fill="#9fb3c8">
    <text x="330" y="110">Example words: at, ar, be</text>
  </g>
</svg>

